<svg xmlns="http://www.w3.org/2000/svg" viewBox="0 0 56 60" width="56" height="60">
	<style>
		tspan { white-space:pre }
		.shp0 { fill: #013e8d } 
	</style>
	<g id="top.jpg">
		<g id="RECRUIT">
			<path id="chart-6" class="shp0" d="M55.5 0L40.5 3.05L44.79 7.32L27.67 24.16L20.16 16.65L0.56 36.14L4.09 39.69L20.15 23.71L27.63 31.19L48.33 10.85L52.5 15L55.5 0ZM55.5 27.5L40.5 27.5L40.5 60L55.5 60L55.5 27.5ZM50.5 32.5L50.5 55L45.5 55L45.5 32.5L50.5 32.5ZM35.5 37.5L20.5 37.5L20.5 60L35.5 60L35.5 37.5ZM30.5 42.5L30.5 55L25.5 55L25.5 42.5L30.5 42.5ZM15.5 45L0.5 45L0.5 60L15.5 60L15.5 45ZM10.5 50L10.5 55L5.5 55L5.5 50L10.5 50Z" />
		</g>
	</g>
</svg>