<svg xmlns="http://www.w3.org/2000/svg" viewBox="0 0 50 60" width="50" height="60">
	<style>
		tspan { white-space:pre }
		.shp0 { fill: #013e8d } 
	</style>
	<g id="top.jpg">
		<g id="RECRUIT">
			<path id="clipboard-5" class="shp0" d="M12.5 34.32L14.64 32.34C17.14 33.55 18.73 34.47 21.54 36.48C26.82 30.48 30.31 27.44 36.8 23.4L37.5 25C32.15 29.67 28.23 34.87 22.58 45C19.1 40.9 16.78 38.28 12.5 34.32ZM45 10L35 10L30 15L20.26 15L15 10L5 10L5 55L45 55L45 10ZM22.5 7.5C22.5 8.88 23.62 10 25 10C26.38 10 27.5 8.88 27.5 7.5C27.5 6.12 26.38 5 25 5C23.62 5 22.5 6.12 22.5 7.5ZM50 5L50 60L0 60L0 5L7.5 5C10.58 5 12.95 2.29 15 0L35 0C37.05 2.29 39.43 5 42.5 5L50 5Z" />
		</g>
	</g>
</svg>