<svg xmlns="http://www.w3.org/2000/svg" viewBox="0 0 64 64" width="64" height="64">
	<style>
		tspan { white-space:pre }
		.shp0 { fill: #013e8d } 
	</style>
	<g id="top.jpg">
		<g id="RECRUIT">
			<path id="help-3" class="shp0" d="M39.05 18.67C37.42 17.03 35.01 16.12 32.24 16.12C26.43 16.12 22.67 20.26 22.67 26.66L28.03 26.66C28.03 22.7 30.24 21.29 32.14 21.29C33.83 21.29 35.62 22.41 35.77 24.56C35.94 26.82 34.73 27.97 33.21 29.42C29.44 33 29.37 34.73 29.39 38.67L34.74 38.67C34.7 36.9 34.82 35.46 37.23 32.86C39.03 30.91 41.28 28.49 41.33 24.8C41.35 22.33 40.57 20.21 39.05 18.67ZM35.33 45.33C35.33 47.17 33.84 48.67 32 48.67C30.16 48.67 28.67 47.17 28.67 45.33C28.67 43.49 30.16 42 32 42C33.84 42 35.33 43.49 35.33 45.33ZM32 0C14.33 0 0 14.33 0 32C0 49.67 14.33 64 32 64C49.67 64 64 49.67 64 32C64 14.33 49.67 0 32 0ZM32 5.33C46.7 5.33 58.67 17.29 58.67 32C58.67 46.7 46.7 58.67 32 58.67C17.3 58.67 5.33 46.7 5.33 32C5.33 17.29 17.3 5.33 32 5.33Z" />
		</g>
	</g>
</svg>