<svg xmlns="http://www.w3.org/2000/svg" viewBox="0 0 78 62" width="78" height="62">
	<style>
		tspan { white-space:pre }
		.shp0 { fill: #013e8d } 
	</style>
	<g id="top.jpg">
		<g id="RECRUIT">
			<path id="gear-10" class="shp0" d="M65 53.3C62.61 53.3 60.67 51.35 60.67 48.95C60.67 46.54 62.61 44.59 65 44.59C67.39 44.59 69.33 46.54 69.33 48.95C69.33 51.35 67.39 53.3 65 53.3ZM78 50.7L78 47.19C76.21 46.55 75.08 46.37 74.51 44.99C73.94 43.61 74.62 42.67 75.43 40.96L72.95 38.47C71.27 39.28 70.32 39.97 68.94 39.4C68.94 39.39 68.94 39.39 68.94 39.39C67.56 38.82 67.38 37.68 66.75 35.89L63.25 35.89C62.62 37.67 62.44 38.82 61.06 39.39C61.06 39.39 61.06 39.39 61.06 39.4C59.68 39.97 58.75 39.29 57.05 38.47L54.57 40.96C55.38 42.67 56.06 43.61 55.49 44.99C54.92 46.37 53.77 46.55 52 47.19L52 50.7C53.77 51.33 54.92 51.52 55.49 52.9C56.06 54.29 55.36 55.26 54.57 56.93L57.05 59.42C58.74 58.61 59.68 57.92 61.06 58.5C61.06 58.5 61.06 58.5 61.06 58.5C62.44 59.07 62.62 60.22 63.25 62L66.75 62C67.38 60.22 67.56 59.07 68.94 58.49C68.95 58.49 68.95 58.49 68.95 58.49C70.32 57.92 71.24 58.6 72.95 59.42L75.43 56.93C74.63 55.23 73.94 54.29 74.51 52.9C75.08 51.52 76.23 51.33 78 50.7ZM27.62 36.98C22.54 36.98 18.42 32.84 18.42 27.74C18.42 22.63 22.54 18.49 27.62 18.49C32.71 18.49 36.83 22.63 36.83 27.74C36.83 32.84 32.71 36.98 27.62 36.98ZM55.25 31.47L55.25 24C51.45 22.64 49.05 22.26 47.84 19.33C47.84 19.33 47.84 19.33 47.84 19.33C46.63 16.39 48.07 14.4 49.79 10.76L44.53 5.48C40.94 7.2 38.93 8.66 35.99 7.44C35.99 7.44 35.99 7.44 35.99 7.44C33.07 6.22 32.69 3.8 31.34 0L23.91 0C22.57 3.78 22.18 6.22 19.26 7.44C19.26 7.44 19.26 7.44 19.25 7.44C16.33 8.66 14.35 7.21 10.72 5.48L5.46 10.76C7.18 14.39 8.62 16.39 7.41 19.33C6.2 22.27 3.76 22.66 0 24L0 31.47C3.75 32.81 6.2 33.2 7.41 36.14C8.63 39.1 7.15 41.15 5.46 44.71L10.72 49.99C14.32 48.27 16.32 46.81 19.25 48.03C19.26 48.03 19.26 48.03 19.26 48.03C22.18 49.25 22.56 51.68 23.91 55.47L31.34 55.47C32.68 51.69 33.07 49.25 36.01 48.03C36.02 48.03 36.02 48.02 36.02 48.02C38.92 46.81 40.89 48.25 44.53 49.99L49.79 44.71C48.08 41.09 46.62 39.08 47.84 36.14C49.05 33.2 51.49 32.81 55.25 31.47Z" />
		</g>
	</g>
</svg>